G04 Output by ViewMate Pro V11.6.20  PentaLogix*
G04 Fri Sep 23 13:45:53 2016*
%FSLAX25Y25*%
%MOIN*%
%IPPOS*%
%ADD10C,0.011*%
%ADD11C,0.009*%
%ADD12C,0.0079*%
%ADD13C,0.007*%
%ADD14C,0.0055*%

%LPD*%
X0Y0D2*D10*G1X182705Y199215D2*Y197615D1*X183515Y196815*X185115*X185915Y199215D2*X185115Y200015D1*X183515*X182705Y199215*Y198415D2*X185915D1*Y199215*X193585Y205665D2*X196795Y210475D1*X193585D2*X196795Y205665D1*X191355Y210475D2*Y206475D1*X190555Y205665*X188945*X188145Y206475*Y210475*X185915D2*Y205665D1*X182705Y210475*Y205665*X166395Y210475D2*Y206475D1*X144645Y210475D2*X147055D1*X147855Y209675*X147055Y208075D2*X147855Y207275D1*Y206475*X147055Y205665*X144645*Y210475*Y208075D2*X147055D1*X147855Y208875*Y209675*X150085Y210475D2*Y206475D1*X150885Y205665*X157125Y201625D2*Y196815D1*X158725Y201625D2*X155525D1*X167995D2*Y196815D1*X169605Y201625D2*X166395D1*X171835Y200015D2*Y197615D1*X172635Y196815*X175045*X173435Y195205D2*X174235D1*X175045Y196005*Y200015*X177275Y195205D2*Y200015D1*Y196815D2*X179675D1*X180475Y197615*Y199215*X179675Y200015*X177275*Y205665D2*Y206475D1*X180475Y209675*Y210475*X177275*X175045D2*Y207275D1*X173435Y205665*X171835Y207275*Y210475*X169605D2*Y206475D1*X168805Y205665*X167195*X166395Y206475*X162565Y208075D2*X163365D1*X160955Y206475D2*X161765Y205665D1*X163365*X164165Y206475*Y207275*X163365Y208075*X164165Y208875*Y209675*X163365Y210475*X161765*X160955Y209675*X157125Y208075D2*X157925D1*X155525Y206475D2*X156325Y205665D1*X157925*X158725Y206475*Y207275*X157925Y208075*X158725Y208875*Y209675*X157925Y210475*X156325*X155525Y209675*X153285Y210475D2*Y206475D1*X152485Y205665*X150885*X150085Y196815D2*Y201625D1*X153285Y196815D2*Y201625D1*X151685Y200015*X150085Y201625*X147855Y200815D2*X147055Y201625D1*X145445*X144645Y200815*Y200015*X145445Y199215*X147055*X147855Y198415*Y197615*X147055Y196815*X145445*X144645Y197615*D11*X136475Y228445D2*X135835Y229085D1*X134555*X133925Y228445*Y227805*X134555Y227165*X135835*X136475Y226535*Y225895*X135835Y225255*X134555*X133925Y225895*X129575Y224615D2*X132125D1*X127775Y229085D2*Y225255D1*X125225Y229085*Y225255*X122325D2*X123595D1*X122955Y229085D2*Y225255D1*X122325Y229085D2*X123595D1*X120525D2*Y226535D1*X119245Y225255*X117975Y226535*Y229085*X103165D2*Y225255D1*X100615Y229085*Y225255*X97715D2*X98995D1*X98355Y229085D2*Y225255D1*X97715Y229085D2*X98995D1*X95915D2*Y226535D1*X94645Y225255*X93365Y226535*Y229085*X76885D2*Y225255D1*X78805*X79435Y225895*Y228445*X78805Y229085*X76885*X75085D2*Y225255D1*X72535Y229085*Y225255*X63835Y227805D2*Y225255D1*X66385Y227165D2*X63835D1*X68185Y225895D2*X68825Y225255D1*X70105*X70735Y225895*Y227165*X69465*X70735Y228445D2*X70105Y229085D1*X68825*X68185Y228445*Y225895*X66385Y225255D2*Y227805D1*X65115Y229085*X63835Y227805*X49325Y229085D2*Y225255D1*X51245*X51885Y225895*Y228445*X51245Y229085*X49325*X47535D2*Y225255D1*X44975Y229085*Y225255*X38825Y227165D2*X36275D1*X40625Y225895D2*X41265Y225255D1*X42545*X43185Y225895*Y227165*X41905*X43185Y228445D2*X42545Y229085D1*X41265*X40625Y228445*Y225895*X38825Y225255D2*Y227805D1*X37555Y229085*X36275Y227805*Y225255*X27365Y181945D2*Y185775D1*X44765Y182585D2*Y185135D1*X45405Y185775*X46685*X47315Y185135*Y182585*X46685Y181945*X45405*X44765Y182585*X40415Y181945D2*Y185775D1*X42335*X42965Y185135*Y182585*X42335Y181945*X40415*X38615D2*X36065D1*Y185775*X32995D2*Y181945D1*X31715Y185775D2*X34265D1*X29915D2*Y181945D1*X27365Y185775*X24465D2*X25745D1*X25105Y181945D2*Y185775D1*X24465Y181945D2*X25745D1*Y144495D2*X24465D1*X28815Y146405D2*X31365Y142575D1*X27015Y146405D2*X24465D1*Y142575*X27015*X28815Y146405D2*Y142575D1*X31365D2*Y146405D1*X37515Y115015D2*X39435D1*X40065Y115655*Y116295*X39435Y116935*X37515D2*X39435D1*X40065Y117575*Y118205*X39435Y118845*X37515*Y115015*X34445Y118845D2*Y115015D1*X33165Y118845D2*X35715D1*X31365Y118205D2*X30735Y118845D1*X29455*X28815Y118205*Y117575*X29455Y116935*X30735*X31365Y116295*Y115655*X30735Y115015*X29455*X28815Y115655*X26385Y116295D2*X27015Y116935D1*Y118205*X26385Y118845*X24465*Y115015*X26385Y116295D2*X24465D1*X27015Y115015D2*X25745Y116295D1*X27015Y77505D2*X25745Y76235D1*X24465Y77505*Y73675*X27015Y77505D2*Y73675D1*X31365Y76865D2*X30735Y77505D1*X29455*X28815Y76865*Y74315*X29455Y73675*X30735*X31365Y74315*Y76865*X35715D2*Y74315D1*X35085Y73675*X33165*Y77505*X35085*X35715Y76865*X38795Y75595D2*X37515D1*X40065Y77505D2*X37515D1*Y73675*X40065*X184805Y4925D2*X186715Y6835D1*Y3015*X202205D2*Y5565D1*X203475Y6835*X204755Y5565*Y3015*X202205Y4925D2*X204755D1*X197855D2*X200405D1*X196055D2*X194145D1*X193505Y5565*Y6205*X194145Y6835*X195415*X196055Y6205*Y3645*X195415Y3015*X194145*X193505Y3645*X191705D2*X191065Y3015D1*X189795*X189155Y3645*Y5565D2*Y6205D1*X189795Y6835*X191065*X191705Y6205*Y3645*Y4925D2*X189795D1*X189155Y5565*X184805Y4925D2*X187355D1*X183005Y6835D2*X181725Y6205D1*X180455Y4925*Y3645*X181095Y3015*X182365*X183005Y3645*Y4285*X182365Y4925*X180455*X176105Y6835D2*X178655D1*X176105Y3645D2*X176745Y3015D1*X178015*X178655Y3645*Y4925*X178015Y5565*X177375*X176105Y4925*Y6835*X157515Y13835D2*X154955D1*X157515Y16385*Y17025*X156875Y17665*X155595*X154955Y17025*X153165D2*X152525Y17665D1*X151245*X150605Y17025*Y16385*X151245Y15755*X152525*X153165Y15115*Y14475*X152525Y13835*X151245*X150605Y14475*X146255Y13195D2*X148815D1*X143185Y17665D2*Y13835D1*X141905Y17665D2*X144465D1*X140115D2*Y14475D1*X139475Y13835*X138195*X137555Y14475*Y17665*X133205Y17025D2*X133845Y17665D1*X135125*X135765Y17025*Y14475*X135125Y13835*X133845*X133205Y14475*Y17025*X131415Y17665D2*Y15115D1*X130135Y13835*X128855Y15115*Y17665*X105335Y76485D2*X105975Y75845D1*X106605*X107245Y76485*Y79675*X107885D2*X106605D1*X112235D2*X109685D1*Y77755*X112235Y76485D2*Y77755D1*X111595Y78395*X110955*X109685Y77755*Y76485D2*X110325Y75845D1*X111595*X112235Y76485*X158755Y68025D2*X159395Y68665D1*Y69945*X158755Y70585*X157475*X156845Y69945*Y69305*X157475Y68025*X155565*Y70585*X149555Y69945D2*X145725D1*X147635Y68025*Y70585*X150185Y63675D2*Y66235D1*X149555Y59325D2*Y61885D1*Y60605D2*X145725D1*X146995Y59325*X146365Y57535D2*X145725Y56895D1*Y55615*X146365Y54975*X148915*X149555Y55615*Y56895*X148915Y57535*X158755D2*X159395Y56895D1*Y55615*X158755Y54975*X156205*X155565Y55615*Y56895*X156205Y57535*X156845Y59325D2*X155565Y60605D1*X159395*Y61885D2*Y59325D1*X160035Y66235D2*Y63675D1*X212875Y65695D2*X215425D1*Y65055*X212875Y62505*Y61865*X208525Y62505D2*X209165Y61865D1*X209795*X210435Y62505*Y65695*X209795D2*X211075D1*X193085Y96405D2*Y93855D1*X194365Y92575*X195645Y93855*Y96405*X199995Y93215D2*X199355Y92575D1*X198075*X197445Y93215*Y95765*X198075Y96405*X199355*X199995Y95765*Y93215*X204345D2*X203705Y92575D1*X202425*X201795Y93215*Y96405*X204345Y93215D2*Y96405D1*X207415D2*Y92575D1*X208695Y96405D2*X206145D1*X208695Y119385D2*X208055Y120025D1*X206775*X206145Y119385*Y118755*X206775Y118115*X208055*X208695Y117475*Y116835*X208055Y116195*X206775*X206145Y116835*X201795Y115565D2*X204345D1*X198715Y120025D2*Y116195D1*X197445Y120025D2*X199995D1*X195645D2*Y116835D1*X195005Y116195*X193725*X193085Y116835*Y120025*X188735Y119385D2*X189375Y120025D1*X190655*X191295Y119385*Y116835*X190655Y116195*X189375*X188735Y116835*Y119385*X186945Y120025D2*Y117475D1*X185665Y116195*X184385Y117475*Y120025*X166055Y119935D2*X163505D1*X166055Y122495*Y123125*X165415Y123765*X164135*X163505Y123125*Y131345D2*X164775Y132625D1*Y128795*X163505D2*X166055D1*X159155Y128155D2*X161705D1*X154805Y128795D2*X157355D1*X156075D2*Y132625D1*X154805Y131345*X153005Y131985D2*X152365Y132625D1*X151085*X150455Y131985*Y129435*X151085Y128795*X152365*X153005Y129435*Y120575D2*X152365Y119935D1*X151085*X150455Y120575*Y123125*X151085Y123765*X152365*X153005Y123125*X154805Y122495D2*X156075Y123765D1*Y119935*X157355D2*X154805D1*X161705Y119305D2*X159155D1*X163505Y114275D2*X164135Y114905D1*X165415*X166055Y114275*Y113635*X165415Y112995*X164775D2*X165415D1*X166055Y112355*Y111715*X165415Y111085*X164135*X163505Y111715*X159155Y110445D2*X161705D1*X151085Y111085D2*X150455Y111715D1*Y114275*X151085Y114905*X152365*X153005Y114275*X154805Y113635D2*X156075Y114905D1*Y111085*X154805D2*X157355D1*X153005Y111715D2*X152365Y111085D1*X151085*X146925Y95275D2*X148845Y97195D1*Y93365*X146925Y95275D2*X149475D1*X145125Y97195D2*X143855D1*X144495D2*Y94005D1*X143855Y93365*X143215*X142575Y94005*X105745Y119155D2*X108295D1*X105745Y122345D2*X106385Y122975D1*X107665*X108295Y122345*Y121705*X105745Y119155*X101395Y119795D2*X102035Y119155D1*X102675*X103315Y119795*Y122975*X102675D2*X103945D1*X97475Y156555D2*X94925D1*X97475Y159745D2*Y159105D1*X94925Y156555*X93125Y157195D2*X92485Y156555D1*X91205*X90565Y157195*Y159745*X91205Y160385*X92485*X93125Y159745*X94925D2*X95555Y160385D1*X96835*X97475Y159745*X123255Y166085D2*X123885Y165455D1*Y164815*X123255Y164175*X122615D2*X123255D1*X123885Y163535*Y162905*X123255Y162265*X121975*X121335Y162905*X119535D2*X118905Y162265D1*X117625*X116985Y162905*Y165455*X117625Y166085*X118905*X119535Y165455*X121335D2*X121975Y166085D1*X123255*X127815Y178645D2*X128455Y178015D1*X129085*X129725Y178645*Y181835*X130365D2*X129085D1*X134715Y181205D2*X134075Y181835D1*X132805*X132165Y181205*Y178645*X134715D2*Y181205D1*X132165Y178645*X132805Y178015*X134075*X134715Y178645*X156945Y179635D2*X156305Y178995D1*X158735Y182185D2*Y179635D1*X161295Y182185D2*Y179635D1*X160655Y178995*X159375*X158735Y179635*X161295Y182185*X160655Y182825*X159375*X158735Y182185*X156945D2*X156305Y182825D1*X155025*X154385Y182185*Y179635*X155025Y178995*X156305*X156355Y159205D2*Y155375D1*X158905*X160705Y156015D2*Y158565D1*X161345Y159205*X162625*X163255Y158565*X160705Y156015*X161345Y155375*X162625*X163255Y156015*Y158565*X195645Y170575D2*X195005Y171205D1*X193085*Y167385*Y168655D2*X195005D1*X195645Y169295*Y170575*X197445D2*X198075Y171205D1*X199355*X199995Y170575*Y168015D2*X199355Y167385D1*X198075*X197445Y168015*Y170575*X198715Y169295D2*X199995D1*Y168015*X201795Y171205D2*Y167385D1*X206145Y171205D2*X208055D1*X208695Y170575*Y168015*X208055Y167385*X206145*Y171205*X204345D2*Y167385D1*X201795Y171205*Y194835D2*Y191005D1*X206145Y194835D2*X208055D1*X208695Y194195*Y191645*X208055Y191005*X206145*Y194835*X204345D2*Y191005D1*X201795Y194835*X199995Y194195D2*X199355Y194835D1*X198075*X197445Y194195*X198715Y192915D2*X199995D1*Y191645*X199355Y191005*X198075*X197445Y191645*Y194195*X193085Y194835D2*X195005D1*X195645Y194195*Y192915*X195005Y192275*X193085*Y194835D2*Y191005D1*D12*X211345Y193305D2*X211365Y192835D1*X211425Y192375*X211525Y191915*X211655Y191465*X211825Y191035*X212035Y190615*X212275Y190215*X212555Y189835*X212865Y189475*X213195Y189155*X213555Y188855*X213935Y188585*X214345Y188355*X214765Y188155*X215205Y187985*X215655Y187865*X216115Y187775*X216585Y187725*X217055Y187715*X217515Y187745*X217985Y187815*X218435Y187925*X218885Y188065*X219315Y188245*X219735Y188465*X220125Y188715*X220495Y188995*X220845Y189315*X221165Y189655*X221455Y190015*X221715Y190405*X221945Y190815*X222135Y191245*X222285Y191685*X222405Y192145*X222485Y192605*X222525Y193075*Y193535*X222485Y194005*X222405Y194465*X222285Y194925*X222135Y195365*X221945Y195795*X221715Y196205*X221455Y196595*X221165Y196955*X220845Y197295*X220495Y197615*X220125Y197895*X219725Y198145*X219315Y198365*X218885Y198545*X218435Y198685*X217985Y198795*X217515Y198865*X217055Y198895*X216585Y198885*X216115Y198835*X215655Y198745*X215205Y198625*X214765Y198455*X214345Y198255*X213935Y198025*X213555Y197755*X213195Y197455*X212865Y197135*X212555Y196775*X212275Y196395*X212035Y195995*X211825Y195575*X211655Y195145*X211525Y194695*X211425Y194235*X211365Y193775*X211345Y193305*Y169685D2*X211365Y169215D1*X211425Y168755*X211525Y168295*X211655Y167845*X211825Y167415*X212035Y166995*X212275Y166595*X212555Y166215*X212865Y165855*X213195Y165535*X213555Y165235*X213935Y164965*X214345Y164735*X214765Y164535*X215205Y164365*X215655Y164245*X216115Y164155*X216585Y164105*X217055Y164095*X217515Y164125*X217985Y164195*X218435Y164305*X218885Y164445*X219315Y164625*X219735Y164845*X220125Y165095*X220495Y165375*X220845Y165695*X221165Y166035*X221455Y166395*X221715Y166785*X221945Y167195*X222135Y167625*X222285Y168065*X222405Y168525*X222485Y168985*X222525Y169455*Y169915*X222485Y170385*X222405Y170845*X222285Y171305*X222135Y171745*X221945Y172175*X221715Y172585*X221455Y172975*X221165Y173335*X220845Y173675*X220495Y173995*X220125Y174275*X219725Y174525*X219315Y174745*X218885Y174925*X218435Y175065*X217985Y175175*X217515Y175245*X217055Y175275*X216585Y175265*X216115Y175215*X215655Y175125*X215205Y175005*X214765Y174835*X214345Y174635*X213935Y174405*X213555Y174135*X213195Y173835*X212865Y173515*X212555Y173155*X212275Y172775*X212035Y172375*X211825Y171955*X211655Y171525*X211525Y171075*X211425Y170615*X211365Y170155*X211345Y169685*Y118505D2*X211365Y118035D1*X211425Y117575*X211525Y117115*X211655Y116665*X211825Y116235*X212035Y115815*X212275Y115415*X212555Y115035*X212865Y114675*X213195Y114355*X213555Y114055*X213935Y113785*X214345Y113555*X214765Y113355*X215205Y113185*X215655Y113065*X216115Y112975*X216585Y112925*X217055Y112915*X217515Y112945*X217985Y113015*X218435Y113125*X218885Y113265*X219315Y113445*X219735Y113665*X220125Y113915*X220495Y114195*X220845Y114515*X221165Y114855*X221455Y115215*X221715Y115605*X221945Y116015*X222135Y116445*X222285Y116885*X222405Y117345*X222485Y117805*X222525Y118275*Y118735*X222485Y119205*X222405Y119665*X222285Y120125*X222135Y120565*X221945Y120995*X221715Y121405*X221455Y121795*X221165Y122155*X220845Y122495*X220495Y122815*X220125Y123095*X219725Y123345*X219315Y123565*X218885Y123745*X218435Y123885*X217985Y123995*X217515Y124065*X217055Y124095*X216585Y124085*X216115Y124035*X215655Y123945*X215205Y123825*X214765Y123655*X214345Y123455*X213935Y123225*X213555Y122955*X213195Y122655*X212865Y122335*X212555Y121975*X212275Y121595*X212035Y121195*X211825Y120775*X211655Y120345*X211525Y119895*X211425Y119435*X211365Y118975*X211345Y118505*Y94885D2*X211365Y94415D1*X211425Y93955*X211525Y93495*X211655Y93045*X211825Y92615*X212035Y92195*X212275Y91795*X212555Y91415*X212865Y91055*X213195Y90735*X213555Y90435*X213935Y90165*X214345Y89935*X214765Y89735*X215205Y89565*X215655Y89445*X216115Y89355*X216585Y89305*X217055Y89295*X217515Y89325*X217985Y89395*X218435Y89505*X218885Y89645*X219315Y89825*X219735Y90045*X220125Y90295*X220495Y90575*X220845Y90895*X221165Y91235*X221455Y91595*X221715Y91985*X221945Y92395*X222135Y92825*X222285Y93265*X222405Y93725*X222485Y94185*X222525Y94655*Y95115*X222485Y95585*X222405Y96045*X222285Y96505*X222135Y96945*X221945Y97375*X221715Y97785*X221455Y98175*X221165Y98535*X220845Y98875*X220495Y99195*X220125Y99475*X219725Y99725*X219315Y99945*X218885Y100125*X218435Y100265*X217985Y100375*X217515Y100445*X217055Y100475*X216585Y100465*X216115Y100415*X215655Y100325*X215205Y100205*X214765Y100035*X214345Y99835*X213935Y99605*X213555Y99335*X213195Y99035*X212865Y98715*X212555Y98355*X212275Y97975*X212035Y97575*X211825Y97155*X211655Y96725*X211525Y96275*X211425Y95815*X211365Y95355*X211345Y94885*X206105Y34645D2*X208855D1*Y31895*X215155*Y54725*X210435Y59455*X208855*Y56695*X206105*X204685Y60645D2*X204375D1*X204085Y61415D2*X204975D1*X205265Y62185D2*X203795D1*X203505Y62955D2*X205545D1*X205835Y63735D2*X203215D1*X202925Y64505D2*X206125D1*X202755Y64965D2*X206305D1*X204525Y60235*X202755Y64965*X174605Y56695D2*X171855D1*Y59455*X165555*Y31895*X174605Y34645D2*X171855D1*Y31895*X165555*X154625Y38975D2*Y52365D1*X161125*Y38975*X154625*X145765D2*Y52365D1*X152265*Y38975*X145765*X136535Y25985D2*X136555Y25515D1*X136615Y25055*X136715Y24595*X136845Y24145*X137015Y23715*X137225Y23295*X137465Y22895*X137745Y22515*X138055Y22155*X138385Y21835*X138745Y21535*X139125Y21265*X139535Y21035*X139955Y20835*X140395Y20665*X140845Y20545*X141305Y20455*X141775Y20405*X142245Y20395*X142705Y20425*X143175Y20495*X143625Y20605*X144075Y20745*X144505Y20925*X144925Y21145*X145315Y21395*X145685Y21675*X146035Y21995*X146355Y22335*X146645Y22695*X146905Y23085*X147135Y23495*X147325Y23925*X147475Y24365*X147595Y24825*X147675Y25285*X147715Y25755*Y26215*X147675Y26685*X147595Y27145*X147475Y27605*X147325Y28045*X147135Y28475*X146905Y28885*X146645Y29275*X146355Y29635*X146035Y29975*X145685Y30295*X145315Y30575*X144915Y30825*X144505Y31045*X144075Y31225*X143625Y31365*X143175Y31475*X142705Y31545*X142245Y31575*X141775Y31565*X141305Y31515*X140845Y31425*X140395Y31305*X139955Y31135*X139535Y30935*X139125Y30705*X138745Y30435*X138385Y30135*X138055Y29815*X137745Y29455*X137465Y29075*X137225Y28675*X137015Y28255*X136845Y27825*X136715Y27375*X136615Y26915*X136555Y26455*X136535Y25985*X10555Y75195D2*X10575Y74725D1*X10635Y74265*X10735Y73805*X10865Y73355*X11035Y72925*X11245Y72505*X11485Y72105*X11765Y71725*X12075Y71365*X12405Y71045*X12765Y70745*X13145Y70475*X13555Y70245*X13975Y70045*X14415Y69875*X14865Y69755*X15325Y69665*X15795Y69615*X16265Y69605*X16725Y69635*X17195Y69705*X17645Y69815*X18095Y69955*X18525Y70135*X18945Y70355*X19335Y70605*X19705Y70885*X20055Y71205*X20375Y71545*X20665Y71905*X20925Y72295*X21155Y72705*X21345Y73135*X21495Y73575*X21615Y74035*X21695Y74495*X21735Y74965*Y75425*X21695Y75895*X21615Y76355*X21495Y76815*X21345Y77255*X21155Y77685*X20925Y78095*X20665Y78485*X20375Y78845*X20055Y79185*X19705Y79505*X19335Y79785*X18935Y80035*X18525Y80255*X18095Y80435*X17645Y80575*X17195Y80685*X16725Y80755*X16265Y80785*X15795Y80775*X15325Y80725*X14865Y80635*X14415Y80515*X13975Y80345*X13555Y80145*X13145Y79915*X12765Y79645*X12405Y79345*X12075Y79025*X11765Y78665*X11485Y78285*X11245Y77885*X11035Y77465*X10865Y77035*X10735Y76585*X10635Y76125*X10575Y75665*X10555Y75195*Y116535D2*X10575Y116065D1*X10635Y115605*X10735Y115145*X10865Y114695*X11035Y114265*X11245Y113845*X11485Y113445*X11765Y113065*X12075Y112705*X12405Y112385*X12765Y112085*X13145Y111815*X13555Y111585*X13975Y111385*X14415Y111215*X14865Y111095*X15325Y111005*X15795Y110955*X16265Y110945*X16725Y110975*X17195Y111045*X17645Y111155*X18095Y111295*X18525Y111475*X18945Y111695*X19335Y111945*X19705Y112225*X20055Y112545*X20375Y112885*X20665Y113245*X20925Y113635*X21155Y114045*X21345Y114475*X21495Y114915*X21615Y115375*X21695Y115835*X21735Y116305*Y116765*X21695Y117235*X21615Y117695*X21495Y118155*X21345Y118595*X21155Y119025*X20925Y119435*X20665Y119825*X20375Y120185*X20055Y120525*X19705Y120845*X19335Y121125*X18935Y121375*X18525Y121595*X18095Y121775*X17645Y121915*X17195Y122025*X16725Y122095*X16265Y122125*X15795Y122115*X15325Y122065*X14865Y121975*X14415Y121855*X13975Y121685*X13555Y121485*X13145Y121255*X12765Y120985*X12405Y120685*X12075Y120365*X11765Y120005*X11485Y119625*X11245Y119225*X11035Y118805*X10865Y118375*X10735Y117925*X10635Y117465*X10575Y117005*X10555Y116535*Y144095D2*X10575Y143625D1*X10635Y143165*X10735Y142705*X10865Y142255*X11035Y141825*X11245Y141405*X11485Y141005*X11765Y140625*X12075Y140265*X12405Y139945*X12765Y139645*X13145Y139375*X13555Y139145*X13975Y138945*X14415Y138775*X14865Y138655*X15325Y138565*X15795Y138515*X16265Y138505*X16725Y138535*X17195Y138605*X17645Y138715*X18095Y138855*X18525Y139035*X18945Y139255*X19335Y139505*X19705Y139785*X20055Y140105*X20375Y140445*X20665Y140805*X20925Y141195*X21155Y141605*X21345Y142035*X21495Y142475*X21615Y142935*X21695Y143395*X21735Y143865*Y144325*X21695Y144795*X21615Y145255*X21495Y145715*X21345Y146155*X21155Y146585*X20925Y146995*X20665Y147385*X20375Y147745*X20055Y148085*X19705Y148405*X19335Y148685*X18935Y148935*X18525Y149155*X18095Y149335*X17645Y149475*X17195Y149585*X16725Y149655*X16265Y149685*X15795Y149675*X15325Y149625*X14865Y149535*X14415Y149415*X13975Y149245*X13555Y149045*X13145Y148815*X12765Y148545*X12405Y148245*X12075Y147925*X11765Y147565*X11485Y147185*X11245Y146785*X11035Y146365*X10865Y145935*X10735Y145485*X10635Y145025*X10575Y144565*X10555Y144095*Y183465D2*X10575Y182995D1*X10635Y182535*X10735Y182075*X10865Y181625*X11035Y181195*X11245Y180775*X11485Y180375*X11765Y179995*X12075Y179635*X12405Y179315*X12765Y179015*X13145Y178745*X13555Y178515*X13975Y178315*X14415Y178145*X14865Y178025*X15325Y177935*X15795Y177885*X16265Y177875*X16725Y177905*X17195Y177975*X17645Y178085*X18095Y178225*X18525Y178405*X18945Y178625*X19335Y178875*X19705Y179155*X20055Y179475*X20375Y179815*X20665Y180175*X20925Y180565*X21155Y180975*X21345Y181405*X21495Y181845*X21615Y182305*X21695Y182765*X21735Y183235*Y183695*X21695Y184165*X21615Y184625*X21495Y185085*X21345Y185525*X21155Y185955*X20925Y186365*X20665Y186755*X20375Y187115*X20055Y187455*X19705Y187775*X19335Y188055*X18935Y188305*X18525Y188525*X18095Y188705*X17645Y188845*X17195Y188955*X16725Y189025*X16265Y189055*X15795Y189045*X15325Y188995*X14865Y188905*X14415Y188785*X13975Y188615*X13555Y188415*X13145Y188185*X12765Y187915*X12405Y187615*X12075Y187295*X11765Y186935*X11485Y186555*X11245Y186155*X11035Y185735*X10865Y185305*X10735Y184855*X10635Y184395*X10575Y183935*X10555Y183465*X38115Y216935D2*X38135Y216465D1*X38195Y216005*X38295Y215545*X38425Y215095*X38595Y214665*X38805Y214245*X39045Y213845*X39325Y213465*X39635Y213105*X39965Y212785*X40325Y212485*X40705Y212215*X41115Y211985*X41535Y211785*X41975Y211615*X42425Y211495*X42885Y211405*X43355Y211355*X43825Y211345*X44285Y211375*X44755Y211445*X45205Y211555*X45655Y211695*X46085Y211875*X46505Y212095*X46895Y212345*X47265Y212625*X47615Y212945*X47935Y213285*X48225Y213645*X48485Y214035*X48715Y214445*X48905Y214875*X49055Y215315*X49175Y215775*X49255Y216235*X49295Y216705*Y217165*X49255Y217635*X49175Y218095*X49055Y218555*X48905Y218995*X48715Y219425*X48485Y219835*X48225Y220225*X47935Y220585*X47615Y220925*X47265Y221245*X46895Y221525*X46495Y221775*X46085Y221995*X45655Y222175*X45205Y222315*X44755Y222425*X44285Y222495*X43825Y222525*X43355Y222515*X42885Y222465*X42425Y222375*X41975Y222255*X41535Y222085*X41115Y221885*X40705Y221655*X40325Y221385*X39965Y221085*X39635Y220765*X39325Y220405*X39045Y220025*X38805Y219625*X38595Y219205*X38425Y218775*X38295Y218325*X38195Y217865*X38135Y217405*X38115Y216935*X65675D2*X65695Y216465D1*X65755Y216005*X65855Y215545*X65985Y215095*X66155Y214665*X66365Y214245*X66605Y213845*X66885Y213465*X67195Y213105*X67525Y212785*X67885Y212485*X68265Y212215*X68675Y211985*X69095Y211785*X69535Y211615*X69985Y211495*X70445Y211405*X70915Y211355*X71385Y211345*X71845Y211375*X72315Y211445*X72765Y211555*X73215Y211695*X73645Y211875*X74065Y212095*X74455Y212345*X74825Y212625*X75175Y212945*X75495Y213285*X75785Y213645*X76045Y214035*X76275Y214445*X76465Y214875*X76615Y215315*X76735Y215775*X76815Y216235*X76855Y216705*Y217165*X76815Y217635*X76735Y218095*X76615Y218555*X76465Y218995*X76275Y219425*X76045Y219835*X75785Y220225*X75495Y220585*X75175Y220925*X74825Y221245*X74455Y221525*X74055Y221775*X73645Y221995*X73215Y222175*X72765Y222315*X72315Y222425*X71845Y222495*X71385Y222525*X70915Y222515*X70445Y222465*X69985Y222375*X69535Y222255*X69095Y222085*X68675Y221885*X68265Y221655*X67885Y221385*X67525Y221085*X67195Y220765*X66885Y220405*X66605Y220025*X66365Y219625*X66155Y219205*X65985Y218775*X65855Y218325*X65755Y217865*X65695Y217405*X65675Y216935*X93235D2*X93255Y216465D1*X93315Y216005*X93415Y215545*X93545Y215095*X93715Y214665*X93925Y214245*X94165Y213845*X94445Y213465*X94755Y213105*X95085Y212785*X95445Y212485*X95825Y212215*X96235Y211985*X96655Y211785*X97095Y211615*X97545Y211495*X98005Y211405*X98475Y211355*X98945Y211345*X99405Y211375*X99875Y211445*X100325Y211555*X100775Y211695*X101205Y211875*X101625Y212095*X102015Y212345*X102385Y212625*X102735Y212945*X103055Y213285*X103345Y213645*X103605Y214035*X103835Y214445*X104025Y214875*X104175Y215315*X104295Y215775*X104375Y216235*X104415Y216705*Y217165*X104375Y217635*X104295Y218095*X104175Y218555*X104025Y218995*X103835Y219425*X103605Y219835*X103345Y220225*X103055Y220585*X102735Y220925*X102385Y221245*X102015Y221525*X101615Y221775*X101205Y221995*X100775Y222175*X100325Y222315*X99875Y222425*X99405Y222495*X98945Y222525*X98475Y222515*X98005Y222465*X97545Y222375*X97095Y222255*X96655Y222085*X96235Y221885*X95825Y221655*X95445Y221385*X95085Y221085*X94755Y220765*X94445Y220405*X94165Y220025*X93925Y219625*X93715Y219205*X93545Y218775*X93415Y218325*X93315Y217865*X93255Y217405*X93235Y216935*X120785D2*X120805Y216465D1*X120865Y216005*X120965Y215545*X121095Y215095*X121265Y214665*X121475Y214245*X121715Y213845*X121995Y213465*X122305Y213105*X122635Y212785*X122995Y212485*X123375Y212215*X123785Y211985*X124205Y211785*X124645Y211615*X125095Y211495*X125555Y211405*X126025Y211355*X126495Y211345*X126955Y211375*X127425Y211445*X127875Y211555*X128325Y211695*X128755Y211875*X129175Y212095*X129565Y212345*X129935Y212625*X130285Y212945*X130605Y213285*X130895Y213645*X131155Y214035*X131385Y214445*X131575Y214875*X131725Y215315*X131845Y215775*X131925Y216235*X131965Y216705*Y217165*X131925Y217635*X131845Y218095*X131725Y218555*X131575Y218995*X131385Y219425*X131155Y219835*X130895Y220225*X130605Y220585*X130285Y220925*X129935Y221245*X129565Y221525*X129165Y221775*X128755Y221995*X128325Y222175*X127875Y222315*X127425Y222425*X126955Y222495*X126495Y222525*X126025Y222515*X125555Y222465*X125095Y222375*X124645Y222255*X124205Y222085*X123785Y221885*X123375Y221655*X122995Y221385*X122635Y221085*X122305Y220765*X121995Y220405*X121715Y220025*X121475Y219625*X121265Y219205*X121095Y218775*X120965Y218325*X120865Y217865*X120805Y217405*X120785Y216935*X145765Y169885D2*Y183265D1*X152265*Y169885*X145765*X149015Y162795D2*X153935D1*Y141145*X149015*X139175D2*X134255D1*Y162795*X139175*X123035Y167715D2*Y175595D1*X139565*Y167715*X123035*X113785Y153645D2*Y160135D1*X127165*Y153645*X113785*X106005Y148225D2*Y161615D1*X99505*Y148225*X106005*X109755Y145605D2*X109535D1*X109275Y146375D2*X110015D1*X110275Y147155D2*X109025D1*X110435Y147635D2*X109645Y145275D1*X108855Y147635*X110435*X122835Y143705D2*Y144485D1*X114175*Y143705*Y132675D2*Y131895D1*X122835*Y132675*X135435Y127065D2*X148825D1*Y133565*X135435*Y127065*X126775Y116535D2*X110235D1*Y124415*X126775*Y116535*X135435Y118205D2*X148825D1*Y124705*X135435*Y118205*Y109355D2*X148825D1*Y115845*X135435*Y109355*X132285Y81695D2*X140155D1*Y98225*X132285*Y81695*X114565Y64965D2*Y81495D1*X122445*Y64965*X114565*X75195Y25985D2*Y53545D1*X92915*Y25985*X75195*X61415D2*Y53545D1*X43705*Y25985*X61415*D13*X47945Y20975D2*X48485Y20435D1*X49565*X50105Y20975*Y21505*X49565Y22045*X48485*X47945Y22585*Y23125*X48485Y23665*X49565*X50105Y23125*X51565Y23665D2*Y20435D1*X52645Y21505*X53725Y20435*Y23665*X55195Y22585D2*X56275Y23665D1*Y20435*X57355D2*X55195D1*X85225D2*Y23665D1*X79435Y20975D2*X79975Y20435D1*X81055*X81595Y20975*Y21505*X81055Y22045*X79975*X79435Y22585*Y23125*X79975Y23665*X81055*X81595Y23125*X83065Y23665D2*Y20435D1*X84145Y21505*X85225Y20435*X86685Y20975D2*Y23125D1*X87225Y23665*X88305*X88845Y23125D2*Y20975D1*X88305Y20435*X87225*X86685Y20975*X88845Y23125*X88305Y23665*D14*X200725Y217215D2*Y214255D1*X200525*X200455Y215635D2*Y214255D1*X202345Y215765D2*X202505Y215785D1*X202665Y215835*X202805Y215925*X202915Y216035*X203005Y216175*X203055Y216335*X203075Y216495*X202705Y217285D2*X202855Y217265D1*X203005Y217225*X203145Y217155*X203265Y217055*X203365Y216935*X203435Y216795*X203475Y216645*X203495Y216495*X202755Y215765D2*X202915Y215785D1*X203075Y215835*X203215Y215925*X203325Y216035*X203415Y216175*X203465Y216335*X203485Y216495*X203075D2*X203055Y216645D1*X203015Y216795*X202945Y216935*X202845Y217055*X202725Y217155*X202585Y217225*X202435Y217265*X202285Y217285*X202705D2*X201835D1*X202285D2*X201835D1*X200455*Y215765*Y215635*X202035*X202755Y215765D2*X202385D1*X202035*X201625D2*X202035D1*X203145Y214255*X203445D2*X203205D1*X202385Y215765D2*X203485Y214255D1*X202345Y215765D2*X201625D1*X200455*X198385Y216235D2*X198365Y216415D1*X198325Y216595*X198245Y216765*X198135Y216905*X198005Y217035*X197865Y217145*X197695Y217225*X197515Y217265*X197335Y217285*X197465Y217425D2*X197675Y217405D1*X197875Y217355*X198075Y217275*X198255Y217165*X198415Y217035*X198545Y216875*X198655Y216695*X198735Y216495*X198785Y216295*X198805Y216085*X197415Y214125D2*X197635Y214145D1*X197845Y214195*X198045Y214275*X198225Y214385*X198395Y214525*X198535Y214695*X198645Y214875*X198725Y215075*X198775Y215285*X198795Y215505*X198805Y216085D2*Y215505D1*X198385Y216235D2*Y215325D1*X198365Y215135*X198325Y214955*X198245Y214795*X198135Y214635*X198005Y214505*X197855Y214395*X197685Y214315*X197505Y214275*X197315Y214255*X195775Y215375D2*X195795Y215185D1*X195845Y214995*X195925Y214815*X196035Y214655*X196175Y214515*X196335Y214405*X196515Y214325*X196705Y214275*X196895Y214255*X197315*X196755Y214115D2*X197415D1*X196755Y214125D2*X196535Y214145D1*X196325Y214195*X196125Y214275*X195935Y214395*X195775Y214535*X195635Y214695*X195515Y214885*X195435Y215085*X195385Y215295*X195365Y215515*X195775Y216175D2*X195795Y216365D1*X195845Y216555*X195925Y216735*X196035Y216885*X196175Y217025*X196325Y217135*X196505Y217215*X196695Y217265*X196885Y217285*X197335D2*X196875D1*X197465Y217425D2*X196715D1*X196505Y217405*X196295Y217355*X196095Y217275*X195915Y217165*X195755Y217025*X195615Y216865*X195505Y216685*X195425Y216485*X195375Y216275*X195355Y216065*X195765Y215375D2*Y216175D1*X195355Y216065D2*Y215515D1*X144375Y221835D2*X147405D1*Y222375D2*X144375D1*Y222915D2*X147405D1*Y223445D2*X144375D1*Y223985D2*X147405D1*Y224515D2*X144375D1*Y225055D2*X147405D1*Y225595D2*X144375D1*Y226125D2*X147405D1*Y226665D2*X144375D1*X146405Y233095D2*X152905D1*X154545Y232565D2*X144375D1*X152665Y227735D2*X155755D1*X155935Y228275D2*X153085D1*X153175Y228805D2*X155945D1*Y229345D2*X153195D1*Y229885D2*X155945D1*Y230415D2*X153155D1*X152965Y230955D2*X155845D1*X155615Y231495D2*X152445D1*X144375Y232025D2*X155185D1*X147535Y231495D2*X144375D1*Y230955D2*X147405D1*Y230415D2*X144375D1*Y229885D2*X147405D1*Y229345D2*X144375D1*Y228805D2*X147405D1*Y228275D2*X144375D1*Y227735D2*X147405D1*Y227205D2*X144375D1*X155365D2*X149335D1*Y226665D2*X154725D1*X152705Y226125D2*X149335D1*X149735Y225595D2*X152795D1*X153255Y225055D2*X150155D1*X150575Y224515D2*X153725D1*X154185Y223985D2*X151005D1*X151425Y223445D2*X154655D1*X155115Y222915D2*X151845D1*X152265Y222375D2*X155585D1*X156045Y221835D2*X152695D1*X156295Y221555D2*X152915D1*X149335Y226105*Y227205*X151055*X151505Y227255*X151945Y227365*X152365Y227555*X152635Y227705*X152865Y227915*X153055Y228175*X153165Y228575*X153195Y228995*Y230235*X153095Y230665*X152915Y231065*X152715Y231285*X152485Y231475*X152225Y231615*X151685Y231805*X151125Y231895*X148245*X148025Y231865*X147825Y231775*X147645Y231645*X147515Y231475*X147435Y231265*X147405Y231055*Y221555*X144375*Y232855*X145745Y233065*X147125Y233135*X152225*X152815Y233115*X153385Y233025*X153945Y232855*X154435Y232635*X154875Y232335*X155255Y231955*X155545Y231625*X155755Y231235*X155895Y230815*X155945Y230375*Y228585*X155935Y228265*X155865Y227955*X155725Y227665*X155535Y227415*X155305Y227115*X155025Y226855*X154705Y226655*X154065Y226395*X153395Y226245*X152705Y226175*Y225695*X156295Y221555*X160525Y221835D2*X168625D1*X166755Y221305D2*X162465D1*X174825Y214255D2*X174965D1*X174475D2*X174615D1*X172345Y217285D2*X172205D1*X173445Y221835D2*X176475D1*Y222375D2*X173445D1*Y222915D2*X176475D1*Y223445D2*X173445D1*Y223985D2*X176475D1*Y224515D2*X173445D1*Y225055D2*X176475D1*Y225595D2*X173445D1*Y226125D2*X176545D1*X160765Y232565D2*X168755D1*X169575Y232025D2*X159795D1*X167745Y229885D2*X170555D1*Y229345D2*X167785D1*X167795Y228805D2*X170555D1*Y228275D2*X167795D1*Y227735D2*X170555D1*Y227205D2*X167795D1*Y226665D2*X170555D1*Y226125D2*X167795D1*Y225595D2*X170555D1*Y225055D2*X167785D1*X167765Y224515D2*X170555D1*X170515Y223985D2*X167675D1*X167525Y223445D2*X170355D1*X170015Y222915D2*X167105D1*X159705Y222375D2*X169485D1*X162335Y222915D2*X159195D1*X158905Y223445D2*X161885D1*X161705Y223985D2*X158755D1*X158705Y224515D2*X161625D1*X161605Y225055D2*X158705D1*Y225595D2*X161595D1*Y226125D2*X158705D1*Y226665D2*X161595D1*Y227205D2*X158705D1*Y227735D2*X161595D1*Y228275D2*X158705D1*Y228805D2*X161595D1*X161605Y229345D2*X158705D1*Y229885D2*X161645D1*X161715Y230415D2*X158765D1*X158925Y230955D2*X161955D1*X162435Y231495D2*X159245D1*X166705Y233095D2*X162775D1*X170065Y231495D2*X166935D1*X167415Y230955D2*X170355D1*X167585Y230585D2*X167455Y230895D1*X167265Y231175*X167035Y231415*X166765Y231615*X166225Y231805*X165665Y231895*X163735*X163305Y231845*X162885Y231735*X162495Y231545*X162175Y231255*X161925Y230905*X161735Y230515*X161625Y229795*X161595Y229065*Y227415*X158705*X161595*Y225275*X161615Y224545*X161735Y223835*X161845Y223515*X162005Y223235*X162225Y222995*X162495Y222795*X162765Y222605*X163075Y222465*X163395Y222395*X163735Y222385*X165795*X166215Y222445*X166605Y222585*X166965Y222795*X167215Y223015*X167425Y223265*X167585Y223555*X167765Y224405*X167795Y225275*Y229065*X167755Y229835*X167585Y230585*X170505Y230415D2*X167625D1*X170475Y230575D2*X170555Y230095D1*Y224455*X170515Y223975*X170385Y223515*X170165Y223095*X169865Y222725*X169405Y222295*X168865Y221945*X168275Y221695*X167705Y221475*X167105Y221335*X166485Y221285*X162695*X162065Y221345*X161435Y221475*X160835Y221695*X160335Y221925*X159875Y222225*X159455Y222585*X159155Y222965*X158925Y223385*X158775Y223835*X158705Y224315*Y227415*Y230095*X158785Y230555*X158945Y230995*X159165Y231395*X159455Y231755*X159915Y232125*X160425Y232425*X160975Y232645*X161955Y232965*X162975Y233135*X166285*X166985Y233075*X167675Y232935*X168345Y232715*X168885Y232515*X169375Y232215*X169795Y231825*X170095Y231445*X170325Y231025*X170475Y230575*X173445Y232565D2*X176475D1*Y232025D2*X173445D1*Y231495D2*X176475D1*Y230955D2*X173445D1*Y230415D2*X176475D1*Y229885D2*X173445D1*Y229345D2*X176475D1*X176505Y228805D2*X173445D1*Y228275D2*X176915D1*X185985Y227735D2*X173445D1*Y227205D2*X185985D1*Y226665D2*X173445D1*X183095Y221835D2*X185985D1*Y222375D2*X183095D1*Y222915D2*X185985D1*Y223445D2*X183095D1*Y223985D2*X185985D1*Y224515D2*X183095D1*Y225055D2*X185985D1*Y225595D2*X183095D1*X183025Y226125D2*X185985D1*Y228275D2*X182655D1*X183065Y228805D2*X185985D1*Y229345D2*X183095D1*Y229885D2*X185985D1*Y230415D2*X183095D1*Y230955D2*X185985D1*Y231495D2*X183095D1*Y232025D2*X185985D1*X183095Y232855D2*X185985D1*Y221555*X183095*Y225825*X183065Y226035*X182985Y226235*X182845Y226415*X182675Y226545*X182475Y226625*X182255Y226655*X177305*X177095Y226625*X176895Y226545*X176725Y226415*X176585Y226235*X176505Y226035*X176475Y225825*Y221555*X173445*Y232855*X176475*Y229005*X176505Y228785*X176585Y228585*X176725Y228415*X176895Y228285*X177095Y228195*X177305Y228175*X182265*X182475Y228195*X182675Y228285*X182845Y228415*X182985Y228585*X183065Y228785*X183095Y228995*Y232855*X185985Y232565D2*X183095D1*X201935D2*X189295D1*X191765Y233095D2*X199925D1*X197885Y231495D2*X194705D1*X194935Y230955D2*X197695D1*Y230415D2*X194945D1*Y229885D2*X197695D1*Y229345D2*X194945D1*Y228805D2*X197695D1*Y228275D2*X194945D1*Y227735D2*X197695D1*Y227205D2*X194945D1*Y226665D2*X197695D1*Y226125D2*X194945D1*Y225595D2*X197695D1*Y225055D2*X194945D1*Y224515D2*X197695D1*Y223985D2*X194945D1*Y223445D2*X197695D1*Y222915D2*X194945D1*Y222375D2*X197695D1*Y221835D2*X194945D1*X203485D2*X200595D1*Y222375D2*X203485D1*Y222915D2*X200595D1*Y223445D2*X203485D1*Y223985D2*X200595D1*Y224515D2*X203485D1*Y225055D2*X200595D1*Y225595D2*X203485D1*Y226125D2*X200595D1*Y226665D2*X203485D1*Y227205D2*X200595D1*Y227735D2*X203485D1*Y228275D2*X200595D1*Y228805D2*X203485D1*Y229345D2*X200595D1*Y229885D2*X203475D1*X203415Y230415D2*X200595D1*X200475Y230955D2*X203275D1*X203055Y231495D2*X200025D1*X189295Y232025D2*X202675D1*X192275Y231495D2*X189295D1*Y230955D2*X192055D1*X192045Y230415D2*X189295D1*Y229885D2*X192045D1*Y229345D2*X189295D1*Y228805D2*X192045D1*Y228275D2*X189295D1*Y227735D2*X192045D1*Y227205D2*X189295D1*Y226665D2*X192045D1*Y226125D2*X189295D1*Y225595D2*X192045D1*Y225055D2*X189295D1*Y224515D2*X192045D1*Y223985D2*X189295D1*Y223445D2*X192045D1*Y222915D2*X189295D1*Y222375D2*X192045D1*Y221835D2*X189295D1*X192045Y221555D2*X189295D1*Y232855*X191005Y233075*X192735Y233135*X199355*X200105Y233085*X200845Y232955*X201555Y232715*X201985Y232545*X202375Y232295*X202725Y231985*X203005Y231615*X203245Y231045*X203415Y230445*X203485Y229825*Y221555*X200595*Y230515*X200545Y230795*X200435Y231065*X200255Y231295*X200045Y231475*X199765Y231645*X199465Y231745*X199145Y231755*X198435*X198245Y231725*X198065Y231655*X197915Y231535*X197795Y231385*X197725Y231205*X197695Y231015*Y221555*X194945*Y230905*X194915Y231125*X194825Y231325*X194695Y231505*X194515Y231635*X194315Y231725*X194095Y231755*X192875*X192665Y231725*X192465Y231645*X192295Y231515*X192155Y231335*X192075Y231135*X192045Y230925*Y221555*X192735Y217285D2*X191085D1*X192465Y217215D2*Y214255D1*X192735*Y217285*X193975*Y217145*X191085*X187225Y216165D2*X187245Y216355D1*X187295Y216545*X187395Y216705*X187515Y216855*X187665Y216975*X187825Y217075*X188015Y217125*X188205Y217145*X189435*Y217285D2*X187945D1*X187745Y217265*X187555Y217215*X187385Y217135*X187215Y217025*X187075Y216885*X186965Y216725*X186885Y216545*X186835Y216355*X186815Y216155*X187225Y215425D2*X187245Y215245D1*X187285Y215075*X187365Y214915*X187465Y214765*X187595Y214635*X187745Y214535*X187905Y214455*X188075Y214415*X188255Y214395*X189435*Y214255D2*X187925D1*X187735Y214275*X187545Y214325*X187375Y214405*X187215Y214515*X187075Y214655*X186965Y214815*X186885Y214985*X186835Y215175*X186815Y215365*X187225Y216165D2*Y215425D1*X186815Y215365D2*Y216155D1*X184055Y214125D2*X184245Y214145D1*X184425Y214195*X184585Y214285*X184735Y214405*X184855Y214555*X184945Y214715*X184995Y214895*X185015Y215085*X185025D2*Y217285D1*X184745*Y215015*X184735Y214865*X184685Y214725*X184615Y214595*X184525Y214475*X184405Y214385*X184275Y214315*X184135Y214265*X183985Y214255*X182405Y215035D2*X182415Y214885D1*X182465Y214735*X182535Y214605*X182635Y214485*X182755Y214385*X182885Y214315*X183035Y214265*X183185Y214255*X183985*X184055Y214115D2*X182945D1*X182755Y214135*X182575Y214185*X182415Y214275*X182265Y214395*X182145Y214545*X182055Y214705*X182005Y214885*X181985Y215075*X182405Y215035D2*Y217285D1*X181985*Y215075*X180195Y215285D2*X180175Y215105D1*X180135Y214935*X180055Y214775*X179955Y214625*X179825Y214495*X179675Y214395*X179515Y214315*X179345Y214275*X179165Y214255*X178825Y214395D2*X179015Y214415D1*X179195Y214465*X179355Y214555*X179505Y214675*X179625Y214825*X179715Y214985*X179765Y215165*X179785Y215355*X179025Y217425D2*X179225Y217405D1*X179425Y217355*X179615Y217265*X179775Y217155*X179925Y217005*X180035Y216845*X180125Y216655*X180175Y216455*X180195Y216255*Y215285*X179785Y215355D2*Y216385D1*X179765Y216565*X179715Y216725*X179635Y216885*X179525Y217025*X179385Y217135*X179225Y217215*X179065Y217265*X178885Y217285*X177515*X179025Y217425D2*X177445D1*X177165D2*X177445D1*Y214255*X178825Y214395D2*X177585D1*X179165Y214255D2*X177165D1*Y217425*X175095Y217285D2*Y214255D1*X174965*Y217285*X174825D2*Y214255D1*X174685*X172685Y217285*X172345*X174345Y214255*X172205D2*Y217285D1*X172065*X171935Y214255D2*Y217285D1*X172065Y214255D2*Y217285D1*X171935*X169725Y216235D2*X169705Y216415D1*X169665Y216595*X169585Y216765*X169475Y216905*X169345Y217035*X169205Y217145*X169035Y217225*X168855Y217265*X168675Y217285*X168805Y217425D2*X169015Y217405D1*X169215Y217355*X169415Y217275*X169595Y217165*X169755Y217035*X169885Y216875*X169995Y216695*X170075Y216495*X170125Y216295*X170145Y216085*X168755Y214125D2*X168975Y214145D1*X169185Y214195*X169385Y214275*X169565Y214385*X169735Y214525*X169875Y214695*X169985Y214875*X170065Y215075*X170115Y215285*X170135Y215505*Y216085*X169725Y216235D2*Y215325D1*X169705Y215135*X169665Y214955*X169585Y214795*X169475Y214635*X169345Y214505*X169195Y214395*X169025Y214315*X168845Y214275*X168655Y214255*X167105Y215375D2*X167125Y215185D1*X167175Y214995*X167255Y214815*X167365Y214655*X167505Y214515*X167665Y214405*X167845Y214325*X168035Y214275*X168225Y214255*X168655*X168085Y214115D2*X168755D1*X168085Y214125D2*X167865Y214145D1*X167655Y214195*X167455Y214275*X167265Y214395*X167105Y214535*X166965Y214695*X166845Y214885*X166765Y215085*X166715Y215295*X166695Y215515*X167105Y216175D2*X167125Y216365D1*X167175Y216555*X167255Y216735*X167365Y216885*X167505Y217025*X167655Y217135*X167835Y217215*X168025Y217265*X168215Y217285*X168675*X168805Y217425D2*X168055D1*X167845Y217405*X167635Y217355*X167435Y217275*X167255Y217165*X167095Y217025*X166955Y216865*X166845Y216685*X166765Y216485*X166715Y216275*X166695Y216065*X167105Y215375D2*Y216175D1*X166695Y216065D2*Y215515D1*X162835Y216165D2*X162855Y216355D1*X162905Y216545*X163005Y216705*X163125Y216855*X163275Y216975*X163435Y217075*X163625Y217125*X163815Y217145*X165045*Y217285D2*X163555D1*X163355Y217265*X163165Y217215*X162995Y217135*X162825Y217025*X162685Y216885*X162575Y216725*X162495Y216545*X162445Y216355*X162425Y216155*X162835Y215425D2*X162855Y215245D1*X162895Y215075*X162975Y214915*X163075Y214765*X163205Y214635*X163355Y214535*X163515Y214455*X163685Y214415*X163865Y214395*X165045*Y214255D2*X163535D1*X163345Y214275*X163155Y214325*X162985Y214405*X162825Y214515*X162685Y214655*X162575Y214815*X162495Y214985*X162445Y215175*X162425Y215365*X162835Y216165D2*Y215425D1*X162425Y215365D2*Y216155D1*X160355Y217285D2*Y214255D1*X160145D2*Y217285D1*X159945D2*Y214255D1*X157595Y217285D2*X157735D1*Y214255*X157595*Y217285*X157255*X154295D2*X154155D1*X154635D2*X154845D1*X155805Y214255*X156295D2*X157255Y217285D1*X156975*X156015Y214255*X155805*X155605D2*X154635Y217285D1*X154295*Y214255*X154155Y217285D2*Y214255D1*X151955Y217145D2*X150685D1*X151955Y217285D2*X150245D1*X150065Y217265*X149885Y217225*X149715Y217145*X149575Y217035*X149445Y216905*X149335Y216765*X149255Y216595*X149215Y216415*X149195Y216235*Y215765*Y215285*X149745Y215315D2*X149765Y215135D1*X149815Y214955*X149905Y214795*X150015Y214655*X150155Y214545*X150315Y214455*X150495Y214405*X150675Y214385*X151955Y214395D2*X150675D1*X151955Y214255D2*X150225D1*X150045Y214275*X149875Y214315*X149715Y214395*X149565Y214495*X149435Y214625*X149335Y214775*X149255Y214935*X149215Y215105*X149195Y215285*X149745Y215315D2*Y216205D1*X149765Y216385*X149815Y216565*X149905Y216725*X150025Y216865*X150165Y216985*X150325Y217075*X150505Y217125*X150685Y217145*X149195Y215765D2*X151955D1*X146475D2*X146615Y215745D1*X146755Y215705*X146885Y215625*X146985Y215525*X147065Y215395*X147105Y215255*X147125Y215115*X146675Y214255D2*X146845Y214275D1*X147005Y214325*X147155Y214405*X147295Y214505*X147395Y214645*X147475Y214795*X147525Y214955*X147545Y215125*X146755Y215915D2*X146905Y215895D1*X147055Y215855*X147195Y215785*X147315Y215685*X147415Y215565*X147485Y215425*X147525Y215275*X147545Y215125*X147125Y215115D2*X147105Y214955D1*X147055Y214795*X146965Y214655*X146855Y214545*X146715Y214455*X146555Y214405*X146395Y214385*X145015Y215765D2*X144865Y215785D1*X144715Y215825*X144575Y215895*X144455Y215995*X144355Y216115*X144285Y216255*X144245Y216405*X144225Y216555*X144645D2*X144655Y216685D1*X144705Y216815*X144775Y216925*X144865Y217015*X144975Y217085*X145105Y217135*X145235Y217145*X147265*Y217285D2*X144965D1*X144805Y217265*X144645Y217215*X144505Y217125*X144395Y217015*X144305Y216875*X144255Y216715*X144235Y216555*X144645D2*Y216495D1*X144655Y216365*X144705Y216235*X144775Y216125*X144865Y216035*X144975Y215965*X145105Y215915*X145235Y215905*X146165*X146755*X146475Y215765D2*X146165D1*Y215905*X146025*Y215765*X145015*X146395Y214395D2*X144505D1*Y214255D2*X146675D1*X0Y0D2*M02*