G04 Output by ViewMate Pro V11.6.20  PentaLogix*
G04 Fri Sep 23 13:45:53 2016*
%FSLAX25Y25*%
%MOIN*%
%IPPOS*%
%ADD114C,0.1299*%
%ADD115R,0.0276X0.2205*%
%ADD116C,0.0157*%
%ADD117C,0.0669*%
%ADD118R,0.063X0.063*%
%ADD119R,0.0531X0.0512*%
%ADD120R,0.0591X0.0591*%
%ADD121C,0.0591*%
%ADD122R,0.0512X0.0531*%
%ADD123R,0.0906X0.0846*%
%ADD124R,0.0197X0.1024*%
%ADD125C,0.0512*%

%LPD*%
X0Y0D2*D116*G1X121455Y142125D2*X125795D1*X121455*Y140155D2*X125795D1*X121455*Y138195D2*X125795D1*X121455*Y136225D2*X125795D1*X121455*Y134255D2*X125795D1*X121455*X111215D2*X115555D1*X111215*Y136225D2*X115555D1*X111215*Y142125D2*X115555D1*X111215*Y140155D2*X115555D1*X111215*Y138195D2*X115555D1*X111215*D114*X16145Y220865D3*X220865D3*Y16145D3*X16145D3*D115*X118505Y138195D3*D116*X125795Y142125D3*X121455D3*X125795Y140155D3*X121455D3*X125795Y138195D3*X121455D3*X125795Y136225D3*X121455D3*X125795Y134255D3*X121455D3*X115555D3*X111215D3*X115555Y136225D3*X111215D3*X115555Y142125D3*X111215D3*X115555Y140155D3*X111215D3*X115555Y138195D3*X111215D3*D117*X216935Y193305D3*Y169685D3*Y118505D3*Y94885D3*X142125Y25985D3*X16145Y75195D3*Y116535D3*Y144095D3*Y183465D3*X43705Y216935D3*X71265D3*X98825D3*X126375D3*D118*X118505Y68705D3*Y77755D3*X136225Y85435D3*Y94485D3*X113975Y120475D3*X123035D3*X126775Y171655D3*X135825D3*D119*X149015Y180115D3*Y173035D3*X102755Y158465D3*Y151375D3*X157875Y49215D3*Y42125D3*X149015D3*Y49215D3*D120*X57565Y49765D3*X89055D3*D121*X79055Y49765D3*Y39765D3*X89055Y29765D3*X79055D3*X57565D3*X47565D3*Y39765D3*Y49765D3*D122*X116935Y156895D3*X124015D3*X145675Y130315D3*X138585D3*Y121455D3*X145675D3*Y112595D3*X138585D3*D123*X144095Y144785D3*Y159155D3*D124*X176185Y37205D3*X179335D3*X182485D3*X185635D3*X188785D3*X191935D3*X195085D3*X198225D3*X201375D3*X204525D3*Y54135D3*X201375D3*X198225D3*X195085D3*X191935D3*X188785D3*X185635D3*X182485D3*X179335D3*X176185D3*D125*X210435Y51575D3*X170275Y45675D3*X0Y0D2*M02*