
M48
INCH,TZ,00.0000
T01C0.0118
T02C0.0315
T03C0.0394
T04C0.0472
T05C0.126
%
M72
G90
T01
X15788Y3682
X14902
X8700Y434
X9488
X10276
X11064
X11850
X12638
Y1220
X11850
X11064
Y2008
X11850
X12638
Y2796
X11064Y3582
Y2796
X11850
Y3582
X12638
X13426
Y2796
Y2008
X14212Y1220
X13426
Y434
X14212
X16574
X15788
X15000
Y1220
X15788
X16574
Y2008
X15788
X15000
Y2796
X15788
X16574
X18150
X17362
Y2008
X18150
Y1220
X17362
Y434
X18150
X20512
X19724
X18938
Y1220
X19724
X20512
Y2008
X19724
X18938
Y2796
X19724
X20512
X22086Y5158
Y4370
Y3582
X22874
Y4370
Y5158
Y5946
X21300Y7520
X22086
Y6732
X21300
X20512
Y7520
X12638Y23268
Y22480
X16574Y20906
X18150Y17756
X17362
X13032Y14508
X12834Y12934
X12638Y12638
Y11456
X11850
X11064
Y12638
X11850
Y13228
Y13820
Y14410
Y15000
X9488Y16182
X8700
Y17756
Y16968
X2402
X1614
X826
Y17756
X2402Y19330
X1614
X826Y18544
Y19330
Y20118
X1614
X2402
X4764
Y20906
X7914Y21694
X8700
Y20906
Y20118
Y19330
Y18544
X9488
X10276Y17756
X9488
Y16968
X10276
X11064Y16182
X11850
Y16968
X11064
Y17756
X11850
X13426Y19330
X12638
X11850
X11064
Y20906
Y20118
X11850
Y20906
Y21694
X11064
Y22480
X11850
Y23268
X11064
X9488
X10276
Y22480
X9488
X8700
Y23268
X7126
X7914
Y22480
X7126
X6338Y21694
X5552
Y23268
X6338
Y22480
X5552
X4764
Y23268
X3190
X3976
Y22480
X3190
Y21694
Y20906
X3976
Y20118
X3190
Y19330
X3976
X4764
X5552
X6338
Y20118
X5552
Y20906
X6338
X7126
X7914
Y20118
X7126
Y19330
X7914
Y18544
Y17756
Y16968
Y16182
X7126Y13820
X7914
X9488
Y14606
X10276
Y13820
X10768Y14114
X10826Y13524
X10926Y13228
X9488Y12244
Y11456
X8700
X7126Y12244
X7914
Y13032
X7126
X4764
X5552
X6338
Y12244
X5552
X4764
X3190
X3976
Y13032
X3190
Y13820
X3976
X4764
X5552
X6338
Y15394
X5552
X4764
Y16182
X5552
X6338
Y16968
X5552
X4764
X3976
X3190
Y16182
X3976
Y15394
X3190
X1614
X2402
Y16182
X1614
X826
Y15394
Y14606
X1614Y13820
X2402
Y13032
X1614
Y12244
X2402
Y9882
Y10670
X1614
Y9882
Y8308
Y9094
X2402
Y8308
X3190Y4370
X3976
Y5946
X3190
Y5158
X3976
X6338
Y4370
X7126Y2796
Y3582
X6338
Y2796
X5552Y1220
X6338
Y2008
X5552
X4764
Y1220
Y434
X5552
X6338
X7126
X7914
Y1220
X7126
Y2008
X7914
X8700
Y1220
X9488
X10276
Y2008
X9488
Y3582
Y2796
X10276
Y3582
Y4370
X9488
Y5158
X10276
X11064
Y4370
X11850
X12638
X13426
X16574Y7520
Y6732
X15000
X15788
Y7520
X15000
Y8308
X15788
X16574
X17362
X18150
Y7520
X17362
Y6732
X18150
X18938
X19724
Y7520
X18938
Y8308
X19724
X20512
X21300
X22086
Y10670
X21300
X18938Y13032
X19724
X20512
Y12244
X19724
X18938
Y11456
X19724
X20512
Y10670
X19724
X18938
X18150
X17362
Y11456
X18150
Y12244
X17362
Y13032
X18150
Y14606
X17362
Y15394
X18150
X20512
X19724
X18938
Y14606
X19724
X20512
X21300
Y15394
X22086Y18544
X21300
Y17756
X22086
X22874Y16182
Y16968
Y17756
Y18544
Y19330
Y20118
X22086
X21300
X20512Y20906
X18938Y20118
Y20906
X19724
Y20118
X20512
Y19330
Y18544
Y17756
X19724
X18938
Y18544
X19724
Y19330
X18938
X18150
Y18544
X17362
Y19330
Y20118
X18150
Y20906
X17362
Y21694
X18150
X20512Y23268
Y22480
Y21694
X19724
X18938
Y22480
X19724
Y23268
X18938
X18150
Y22480
X17362
Y23268
X16574
Y22480
Y21694
X15788
X15000
Y22480
X15788
Y23268
X15000
X14212
X13426
Y22480
X14212
Y21694
X13426
Y20906
X14212
Y20118
X15000
Y20906
X15788
Y20118
X16574
Y19330
X15000Y18544
Y19330
X15788
Y18544
X16574
Y17756
X15788
X14704Y16574
X15098
X15788Y15394
X16574
Y14606
X15788
X15000Y13032
X15788
X16574
Y12244
X15788
X15000
Y11456
X15788
X16574
Y10670
X15788
X15000
X14410
X12638Y8308
Y9094
X11850Y9882
X12638
Y10670
X11850
X11064
Y9882
Y9094
X11850
Y8308
X11064
Y6732
X10276
X9488
X8700
X7914
X7126Y9094
Y8308
X7914
Y9094
X8700
Y8308
X9488
Y9094
Y9882
Y10670
X8700
Y9882
X7914
Y10670
X7126
Y9882
X5552
X6338
Y10670
X5552
X4764
Y9882
X3976
Y10670
X3190
Y9882
Y9094
Y8308
X3976
Y9094
X4764
Y8308
X5552
Y9094
X6338
Y8308
Y6732
X5552
X4764
X3976
X3190
X1614
X2402
Y5946
X1614
Y5158
X2402
Y4370
X1614
X826Y3582
X1614
X2402
X3190Y2796
Y3582
X3976
Y2796
Y2008
X3190
Y1220
X3976
Y434
X3190
T02
X5756Y2976
X4756
Y3976
Y4976
X5756
X8906
X7906
Y3976
Y2976
X8906
T03
X14212Y2598
X21694Y9488
Y11850
Y16968
Y19330
X12638Y21694
X9882
X7126
X4370
X1614Y18346
Y14410
Y11654
Y7520
T04
X21044Y5158
X17028Y4568
T05
X1614Y22086
X22086
Y1614
X1614
M30
